<?xml version="1.0" encoding="UTF-8" standalone="no"?>
<svg
   xmlns:dc="http://purl.org/dc/elements/1.1/"
   xmlns:cc="http://creativecommons.org/ns#"
   xmlns:rdf="http://www.w3.org/1999/02/22-rdf-syntax-ns#"
   xmlns:svg="http://www.w3.org/2000/svg"
   xmlns="http://www.w3.org/2000/svg"
   xmlns:sodipodi="http://sodipodi.sourceforge.net/DTD/sodipodi-0.dtd"
   xmlns:inkscape="http://www.inkscape.org/namespaces/inkscape"
   width="48"
   height="48"
   version="1.1"
   id="svg28"
   sodipodi:docname="shield.svg"
   inkscape:version="0.92.3 (2405546, 2018-03-11)">
  <metadata
     id="metadata34">
    <rdf:RDF>
      <cc:Work
         rdf:about="">
        <dc:format>image/svg+xml</dc:format>
        <dc:type
           rdf:resource="http://purl.org/dc/dcmitype/StillImage" />
        <dc:title></dc:title>
      </cc:Work>
    </rdf:RDF>
  </metadata>
  <defs
     id="defs32" />
  <sodipodi:namedview
     pagecolor="#ffffff"
     bordercolor="#666666"
     borderopacity="1"
     objecttolerance="10"
     gridtolerance="10"
     guidetolerance="10"
     inkscape:pageopacity="0"
     inkscape:pageshadow="2"
     inkscape:window-width="1366"
     inkscape:window-height="705"
     id="namedview30"
     showgrid="false"
     inkscape:zoom="6.5667383"
     inkscape:cx="39.886019"
     inkscape:cy="20.48201"
     inkscape:window-x="-8"
     inkscape:window-y="-8"
     inkscape:window-maximized="1"
     inkscape:current-layer="svg28"
     showguides="true"
     inkscape:guide-bbox="true" />
  <g
     id="g835"
     transform="matrix(0.20508244,0,0,0.16580042,-21.287084,15.872583)">
    <path
       id="path2"
       d="m 220.44716,-91.962192 h 0.97808 l 4.21326,2.2351 q 4.21324,2.2351 5.5675,2.9287 1.35428,0.6937 9.21652,4.5088 7.86225,3.8151 8.12558,3.8536 0.26331,0.039 4.17562,1.8112 3.91231,1.7727 6.01894,2.6205 2.10664,0.8478 6.09418,2.3122 3.98755,1.4643 5.04087,1.8497 1.05332,0.3854 2.63331,0.9249 1.57996,0.5395 4.06275,1.3102 2.48281,0.7707 6.31991,1.8498 3.83707,1.079 7.44844,1.9268 3.61136,0.8478 4.66466,1.079 1.05331,0.2312 6.6961,1.3102 5.64275,1.079 7.07222,1.3102 1.42949,0.2313 6.99702,1.1561 5.56753,0.9249 5.64275,0.9249 0.0752,0 5.41706,1.079 5.34182,1.079 5.37945,1.1176 l 0.0376,0.038 -0.22571,11.4838 q -0.22571,11.4838 -1.12855,29.6729 -0.90283,18.1891004 -1.42952,25.434 -0.52667,7.2448 -1.20377,12.4087 -0.67714,5.1638 -1.57998,9.7882 -0.90281,4.6243 -1.95617,9.3257 -1.05332,4.7015 -1.88091,8.2468 -0.82759,3.5453 -1.95616,7.6302 -1.12853,4.0848 -1.35426,4.9326 -0.22569,0.8478 -0.67712,2.1581 -0.45141,1.3102 -1.05332,3.237 -0.60192,1.9268 -1.88093,5.5492 -1.279,3.6224 -2.10661,5.7805 -0.82761,2.158 -2.0314,5.1638 -1.20377,3.005902 -3.0847,7.244802 -1.88092,4.23899 -2.25708,4.93269 -0.3762,0.6936 -2.74615,5.0482 -2.36995,4.3546 -2.85901,5.1639 -0.48906,0.8093 -2.33234,4.0848 -1.8433,3.2756 -2.40758,4.162 -0.56427,0.8863 -1.73045,2.7746 -1.16614,1.8883 -1.88093,2.9287 -0.71473,1.0405 -1.65516,2.4663 -0.94048,1.4259 -1.80572,2.6205 -0.86524,1.1946 -1.35423,2.0039 -0.48907,0.8092 -1.42952,2.0809 -0.94045,1.2718 -1.80569,2.5434 -0.86522,1.2717 -1.88091,2.6205 -1.01571,1.3488 -1.73044,2.3122 -0.71477,0.9634 -3.04709,3.6609 -2.33236,2.6976 -5.49227,6.1658 -3.15995,3.4683 -5.56755,5.9347 -2.40759,2.4663 -3.19757,3.1214 -0.78996,0.6551 -3.6866,3.3141 -2.8966,2.659 -3.53613,3.237 -0.63951,0.5781 -3.15993,2.8517 -2.52042,2.2737 -3.31043,2.9288 -0.78998,0.6551 -1.80569,1.5414 -1.01569,0.8864 -2.82136,2.4278 -1.80569,1.5414 -2.74615,2.2736 -0.94045,0.7322 -1.80567,1.3103 -0.86524,0.578 -3.15995,2.0039 -2.29472,1.4258 -3.00946,1.9268 -0.71475,0.501 -1.6176,1.0405 -0.90284,0.5395 -1.88093,1.2331 -0.97806,0.6937 -1.42947,1.002 -0.45143,0.3083 -1.95617,1.079 -1.50473,0.7707 -3.61136,1.7727 -2.10664,1.0019 -2.93425,1.3102 l -0.82759,0.3083 -0.90283,-0.2313 q -0.90285,-0.2312 -1.95617,-0.7707 -1.05332,-0.5395 -3.53612,-1.8497 -2.48282,-1.3102 -2.859,-1.6185 -0.3762,-0.3083 -1.91853,-1.3488 -1.54235,-1.0405 -2.33236,-1.5415 -0.78999,-0.5009 -3.08469,-1.9268 -2.29472,-1.4258 -3.15995,-2.0039 -0.86523,-0.578 -1.80568,-1.3102 -0.94046,-0.7322 -2.14425,-1.7341 -1.20379,-1.002 -3.19756,-2.7361 -1.99377,-1.7342 -3.4609,-3.0058 -1.46711,-1.2717 -4.28849,-3.8536 -2.82137,-2.582 -3.61136,-3.2371 -0.78999,-0.6551 -3.46089,-3.0829 -2.6709,-2.4278 -2.97186,-2.7361 -0.30095,-0.3083 -2.6709,-2.736 -2.36996,-2.4278 -3.31041,-3.4683 -0.94047,-1.0405 -4.13802,-4.6244 -3.19757,-3.5838 -3.83708,-4.3931 -0.63951,-0.8093 -1.88092,-2.3892 -1.24141,-1.58 -1.95615,-2.5434 -0.71475,-0.9635 -1.42951,-2.0039 -0.71474,-1.0405 -1.50473,-2.1581 -0.78999,-1.1175 -1.4295,-2.0039 -0.63951,-0.8863 -1.09093,-1.5799 -0.45142,-0.6937 -1.24141,-1.8112 -0.78999,-1.1176 -1.35426,-2.0039 -0.56428,-0.8863 -1.50473,-2.3122 -0.94047,-1.4258 -1.4295,-2.2351 -0.48904,-0.8093 -1.57997,-2.5434 -1.09093,-1.7341 -1.4295,-2.3892 -0.33856,-0.6552 -1.88092,-3.3142 -1.54235,-2.659 -2.03139,-3.4683 -0.48904,-0.8092 -2.4452,-4.4316 -1.95615,-3.6224 -2.93423,-5.4722 -0.97808,-1.8497 -1.73045,-3.4682 -0.75236,-1.61859 -2.10662,-4.85559 -1.35427,-3.237002 -1.35427,-3.314102 0,-0.077 -1.35426,-3.5453 -1.35426,-3.4683 -2.10662,-5.4722 -0.75238,-2.0039 -2.10663,-6.0887 -1.35427,-4.0849 -2.70853,-8.7092 -1.35426,-4.6244 -3.00947,-11.2526 -1.6552,-6.6282 -2.33234,-9.8653 -0.67713,-3.237 -1.88091,-9.4028 -1.20379,-6.1658 -1.4295,-8.0926 -0.22571,-1.9269 -0.97808,-11.7921 -0.75237,-9.8652996 -0.97808,-14.8750996 -0.22571,-5.0097003 -0.52666,-10.6360004 -0.30095,-5.6263 -0.8276,-18.4203 -0.52666,-12.794 -0.52666,-18.112 v -5.318 l 0.48903,-0.2698 q 0.48905,-0.2698 2.67091,-0.6551 2.18187,-0.3854 6.01895,-1.002 3.83707,-0.6165 11.66169,-2.0039 7.82463,-1.3873 11.21028,-2.0038 3.38565,-0.6166 8.95318,-1.9269 5.56751,-1.3102 9.6303,-2.4663 4.06277,-1.1561 6.99701,-2.158 2.93424,-1.0019 4.58944,-1.5415 1.65522,-0.5395 3.15996,-1.079 1.50472,-0.5395 6.01893,-2.3121 4.51421,-1.7727 8.46415,-3.5839 3.94992,-1.8112 4.21324,-1.8498 0.26333,-0.039 3.79946,-1.7341 3.53612,-1.6956 6.39513,-3.0829 2.85899,-1.3873 5.64274,-2.7746 2.78377,-1.3873 6.92179,-3.6224 l 4.13803,-2.2351 h 0.97807 z"
       inkscape:connector-curvature="0"
       style="fill:#008000;fill-rule:evenodd;stroke:none;stroke-width:0.42905867px" />
    <path
       sodipodi:nodetypes="cccc"
       inkscape:connector-curvature="0"
       id="path21"
       d="M 229.35439,-75.239903 V 170.4375 c 57.19772,-48.12709 93.12064,-101.238157 90.79944,-216.737398 -30.26789,-1.218937 -62.85187,-10.897419 -90.79944,-28.940005 z"
       style="fill:#ffff00;stroke:none;stroke-width:1px;stroke-linecap:butt;stroke-linejoin:miter;stroke-opacity:1" />
  </g>
</svg>
